<svg width="1279" height="523" viewBox="0 0 1279 523" fill="none" xmlns="http://www.w3.org/2000/svg">
<g id="Group 4">
<g id="PAUL">
<path d="M70.88 171.7V238H0.5V0H111.34C137.86 0 159.96 8.16 177.64 24.48C195.547 40.8 204.5 61.2 204.5 85.68C204.5 110.16 195.547 130.673 177.64 147.22C159.96 163.54 137.86 171.7 111.34 171.7H70.88ZM111.34 64.6H70.88V107.1H111.34C117.007 107.1 121.767 105.06 125.62 100.98C129.473 96.9 131.4 91.8 131.4 85.68C131.4 79.7867 129.473 74.8 125.62 70.72C121.767 66.64 117.007 64.6 111.34 64.6Z" fill="#F1254A"/>
<path d="M318.113 146.2L300.773 101.32L283.093 146.2H318.113ZM426.913 238H353.473L341.573 207.4H259.293L247.393 238H173.953L271.193 0H329.673L426.913 238Z" fill="#F1254A"/>
<path d="M571.708 139.4V0H642.088V140.08C642.088 168.64 631.661 192.667 610.808 212.16C589.955 231.653 564.228 241.4 533.628 241.4C502.801 241.4 476.961 231.653 456.108 212.16C435.481 192.893 425.168 168.867 425.168 140.08V0H495.548V139.4C495.548 150.053 499.175 159.007 506.428 166.26C513.681 173.287 522.748 176.8 533.628 176.8C544.508 176.8 553.575 173.287 560.828 166.26C568.081 159.007 571.708 150.053 571.708 139.4Z" fill="#F1254A"/>
<path d="M659.25 0H729.63V173.4H835.03V238H659.25V0Z" fill="#F1254A"/>
</g>
<g id="RAND">
<path d="M334.5 285H448.74C475.26 285 497.36 293.16 515.04 309.48C532.947 325.8 541.9 346.2 541.9 370.68C541.9 385.413 538.5 398.9 531.7 411.14C525.127 423.38 515.72 433.353 503.48 441.06L549.38 523H471.18L434.12 456.7H404.88V523H334.5V285ZM448.74 349.6H404.88V392.1H448.74C454.407 392.1 459.167 390.06 463.02 385.98C466.873 381.9 468.8 376.8 468.8 370.68C468.8 364.787 466.873 359.8 463.02 355.72C459.167 351.64 454.407 349.6 448.74 349.6Z" fill="#F1254A"/>
<path d="M696.937 431.2L679.597 386.32L661.917 431.2H696.937ZM805.737 523H732.297L720.397 492.4H638.117L626.217 523H552.777L650.017 285H708.497L805.737 523Z" fill="#F1254A"/>
<path d="M881.945 523H814.285V285H877.185L966.605 402.98V285H1034.27V523H971.365L881.945 405.7V523Z" fill="#F1254A"/>
<path d="M1152 523H1051.36V285H1152C1187.81 285 1217.84 296.447 1242.1 319.34C1266.35 342.233 1278.48 370.453 1278.48 404C1278.48 437.547 1266.35 465.767 1242.1 488.66C1217.84 511.553 1187.81 523 1152 523ZM1152 349.6H1121.74V458.4H1152C1166.96 458.4 1179.54 453.187 1189.74 442.76C1199.94 432.333 1205.04 419.413 1205.04 404C1205.04 389.04 1199.94 376.233 1189.74 365.58C1179.54 354.927 1166.96 349.6 1152 349.6Z" fill="#F1254A"/>
</g>
</g>
</svg>
